<?xml version="1.0" standalone="no"?>
<!DOCTYPE svg PUBLIC "-//W3C//DTD SVG 20010904//EN"
 "http://www.w3.org/TR/2001/REC-SVG-20010904/DTD/svg10.dtd">
<svg version="1.0" xmlns="http://www.w3.org/2000/svg"
 width="260.000000pt" height="260.000000pt" viewBox="0 0 260.000000 260.000000"
 preserveAspectRatio="xMidYMid meet">
<metadata>
Created by potrace 1.11, written by Peter Selinger 2001-2013
</metadata>
<g transform="translate(0.000000,260.000000) scale(0.100000,-0.100000)"
fill="#000000" stroke="none">
<path d="M0 1300 l0 -1300 1300 0 1300 0 0 1300 0 1300 -1300 0 -1300 0 0
-1300z m1935 659 c4 -6 -2 -13 -13 -16 -11 -3 -19 -10 -16 -17 2 -6 -15 -30
-38 -53 -72 -69 -151 -87 -548 -119 -107 -8 -195 -16 -196 -17 -8 -11 -59
-119 -70 -149 l-13 -38 552 -2 c435 -2 551 -6 549 -15 -1 -10 19 -13 78 -13
44 0 80 -4 80 -9 0 -4 -91 -11 -202 -15 -112 -3 -281 -9 -375 -13 l-173 -6 0
-23 c0 -22 5 -24 48 -25 l47 -2 -40 -7 -40 -7 35 -3 35 -2 -30 -7 c-39 -8 -35
-24 7 -32 25 -5 17 -7 -31 -8 -36 0 -78 -6 -95 -11 -17 -6 -156 -21 -308 -34
-153 -12 -279 -24 -281 -27 -2 -2 -27 -47 -56 -99 -103 -184 -281 -485 -302
-510 -17 -21 -20 -22 -15 -5 5 16 3 16 -14 -5 -11 -14 -20 -29 -20 -34 0 -5
-3 -7 -6 -3 -4 3 8 32 26 64 18 32 26 52 16 44 -21 -18 -21 -4 3 59 11 27 17
50 15 50 -2 0 -24 -27 -49 -61 -50 -67 -52 -69 -30 -15 15 36 15 37 -5 26 -24
-13 -28 4 -7 35 8 11 22 34 33 50 16 27 17 28 1 16 -9 -7 -29 -36 -44 -63 -15
-28 -29 -45 -31 -40 -2 6 10 34 27 64 16 29 33 71 37 93 4 22 47 125 97 229
77 163 88 193 77 209 -10 16 -8 24 8 47 l20 27 -151 6 c-150 6 -227 19 -227
37 0 6 6 10 14 10 8 0 16 4 18 10 2 6 88 13 209 16 l207 7 77 159 c70 145 80
160 117 181 22 12 57 31 77 42 32 18 61 21 251 25 412 11 658 11 665 -1z"/>
<path d="M1953 1533 c15 -2 37 -2 50 0 12 2 0 4 -28 4 -27 0 -38 -2 -22 -4z"/>
</g>
</svg>
